<svg xmlns="http://www.w3.org/2000/svg" viewBox="0 0 64 64">
  <defs>
    <linearGradient id="ocean" x1="12" x2="52" y1="8" y2="56" gradientUnits="userSpaceOnUse">
      <stop stop-color="#38bdf8"/>
      <stop offset="1" stop-color="#2563eb"/>
    </linearGradient>
  </defs>
  <rect width="64" height="64" rx="16" fill="#020617"/>
  <circle cx="32" cy="32" r="23" fill="url(#ocean)"/>
  <path fill="#22c55e" d="M19 23c3-7 10-10 17-9 2 4-1 6-4 7-4 1-3 5-6 6-3 1-5-1-7-4Zm26 4c6 2 9 8 8 15-4 1-7-1-8-5-1-3-4-2-6-5-2-3 2-5 6-5ZM24 39c4 1 7 2 8 6 1 3-1 5-4 6-5-1-9-4-12-8 2-3 4-5 8-4Z"/>
  <path fill="none" stroke="#e0f2fe" stroke-opacity=".9" stroke-width="2" d="M10 32h44M32 9c6 6 9 14 9 23s-3 17-9 23M32 9c-6 6-9 14-9 23s3 17 9 23"/>
</svg>
